<svg xmlns="http://www.w3.org/2000/svg" width="103" height="93" fill="none" viewBox="0 0 103 93">
    <path fill="#fff" d="M6.526 87.312c-1.768 0-3.19-.494-4.264-1.482C1.205 84.825.676 83.403.676 81.566h3.328c.017.85.217 1.525.598 2.028.381.503.997.754 1.846.754.797 0 1.378-.234 1.742-.702.364-.485.546-1.118.546-1.898V68.8h3.328v12.948c0 1.785-.503 3.163-1.508 4.134-.988.953-2.331 1.43-4.03 1.43Zm15.19 0c-1.248 0-2.375-.286-3.38-.858a6.454 6.454 0 0 1-2.366-2.366c-.572-1.023-.858-2.201-.858-3.536s.295-2.505.884-3.51a6.397 6.397 0 0 1 2.366-2.392c1.005-.572 2.132-.858 3.38-.858 1.23 0 2.34.286 3.328.858a6.154 6.154 0 0 1 2.366 2.392c.59 1.005.884 2.175.884 3.51s-.295 2.513-.884 3.536a6.205 6.205 0 0 1-2.366 2.366c-1.005.572-2.123.858-3.354.858Zm0-2.886c.867 0 1.62-.32 2.262-.962.641-.659.962-1.63.962-2.912 0-1.283-.32-2.245-.962-2.886-.641-.659-1.387-.988-2.236-.988-.884 0-1.647.33-2.288.988-.624.641-.936 1.603-.936 2.886 0 1.283.312 2.253.936 2.912.641.641 1.395.962 2.262.962Zm17.224 2.886c-.971 0-1.82-.182-2.548-.546a4.592 4.592 0 0 1-1.769-1.534L34.26 87h-2.964V68.28h3.328v7.67c.415-.572.962-1.075 1.637-1.508.694-.433 1.586-.65 2.678-.65 1.214 0 2.297.295 3.25.884a6.333 6.333 0 0 1 2.263 2.418c.554 1.023.831 2.184.831 3.484 0 1.3-.277 2.461-.831 3.484a6.386 6.386 0 0 1-2.262 2.392c-.954.572-2.037.858-3.25.858Zm-.703-2.912c1.058 0 1.933-.355 2.627-1.066.693-.71 1.04-1.63 1.04-2.756 0-1.127-.347-2.054-1.04-2.782-.694-.728-1.57-1.092-2.627-1.092-1.074 0-1.958.364-2.651 1.092-.676.71-1.014 1.63-1.014 2.756 0 1.127.337 2.054 1.014 2.782.693.71 1.577 1.066 2.651 1.066Zm15.349 2.912c-1.144 0-2.149-.182-3.016-.546-.866-.381-1.56-.901-2.08-1.56a4.479 4.479 0 0 1-.936-2.288h3.354c.104.503.382.936.832 1.3.468.347 1.066.52 1.794.52s1.257-.147 1.586-.442c.347-.295.52-.633.52-1.014 0-.555-.242-.927-.728-1.118-.485-.208-1.16-.407-2.028-.598a22.15 22.15 0 0 1-1.69-.442 8.676 8.676 0 0 1-1.586-.65 3.675 3.675 0 0 1-1.144-1.04c-.294-.433-.442-.962-.442-1.586 0-1.144.451-2.106 1.352-2.886.92-.78 2.202-1.17 3.848-1.17 1.526 0 2.74.355 3.64 1.066.92.71 1.465 1.69 1.638 2.938h-3.146c-.19-.953-.91-1.43-2.158-1.43-.624 0-1.109.121-1.456.364-.329.243-.494.546-.494.91 0 .381.252.685.754.91.503.225 1.17.433 2.002.624.902.208 1.725.442 2.47.702.763.243 1.37.615 1.82 1.118.451.485.676 1.187.676 2.106a3.621 3.621 0 0 1-.624 2.158c-.433.641-1.057 1.144-1.872 1.508-.814.364-1.776.546-2.886.546Zm8.331 5.408V74.104h2.964l.364 1.846c.416-.572.962-1.075 1.638-1.508.693-.433 1.586-.65 2.678-.65 1.213 0 2.296.295 3.25.884a6.333 6.333 0 0 1 2.262 2.418c.554 1.023.832 2.184.832 3.484 0 1.3-.278 2.461-.832 3.484a6.386 6.386 0 0 1-2.262 2.392c-.954.572-2.037.858-3.25.858-.971 0-1.82-.182-2.548-.546a4.592 4.592 0 0 1-1.768-1.534v7.488h-3.328Zm6.942-8.32c1.057 0 1.932-.355 2.626-1.066.693-.71 1.04-1.63 1.04-2.756 0-1.127-.347-2.054-1.04-2.782-.694-.728-1.57-1.092-2.626-1.092-1.075 0-1.96.364-2.652 1.092-.676.71-1.014 1.63-1.014 2.756 0 1.127.338 2.054 1.014 2.782.693.71 1.577 1.066 2.652 1.066Zm16.207 2.912c-1.249 0-2.375-.286-3.38-.858a6.454 6.454 0 0 1-2.367-2.366c-.572-1.023-.858-2.201-.858-3.536s.295-2.505.885-3.51a6.397 6.397 0 0 1 2.365-2.392c1.006-.572 2.133-.858 3.38-.858 1.231 0 2.34.286 3.329.858a6.154 6.154 0 0 1 2.365 2.392c.59 1.005.885 2.175.885 3.51s-.295 2.513-.885 3.536a6.205 6.205 0 0 1-2.365 2.366c-1.006.572-2.124.858-3.355.858Zm0-2.886c.866 0 1.62-.32 2.261-.962.642-.659.963-1.63.963-2.912 0-1.283-.321-2.245-.963-2.886-.64-.659-1.386-.988-2.236-.988-.883 0-1.646.33-2.287.988-.624.641-.936 1.603-.936 2.886 0 1.283.312 2.253.936 2.912.64.641 1.395.962 2.261.962ZM99.883 87c-1.352 0-2.435-.33-3.25-.988-.814-.659-1.222-1.829-1.222-3.51v-5.616h-2.21v-2.782h2.21l.39-3.458h2.938v3.458h3.484v2.782h-3.484v5.642c0 .624.13 1.057.39 1.3.278.225.746.338 1.404.338h1.612V87h-2.262ZM22 30c0-14.142 0-21.213 4.393-25.607C30.787 0 37.858 0 52 0s21.213 0 25.607 4.393C82 8.787 82 15.858 82 30s0 21.213-4.393 25.607C73.213 60 66.142 60 52 60s-21.213 0-25.607-4.393C22 51.213 22 44.142 22 30Z"/>
    <path fill="#0D0140" d="M57 37.5c.69 0 1.263.565 1.125 1.242a6.25 6.25 0 0 1-12.25 0c-.138-.677.434-1.242 1.125-1.242h10Zm2.628-10.28c-.667.18-1.075.877-.737 1.479a5 5 0 1 0 .782-5.943c-.482.494-.268 1.274.33 1.619l.634.366c.964.557.774 2.002-.302 2.29l-.707.19Zm-15.256 0c.667.18 1.076.877.737 1.479a5 5 0 1 1-.782-5.943c.483.494.269 1.274-.33 1.619l-.633.366c-.965.557-.775 2.002.301 2.29l.707.19Z"/>
</svg>
