<svg xmlns="http://www.w3.org/2000/svg" width="311" height="301" fill="none" viewBox="0 0 311 301">
    <path fill="#FFD6AD" fill-rule="evenodd" d="M132.364 23.983c40.995 1.541 81.819 7.63 113.472 33.607 34.977 28.706 66.772 67.858 65.101 112.951-1.639 44.228-37.255 78.83-73.174 104.915-30.316 22.016-68.003 27.881-105.399 24.769-33.901-2.822-67.13-15.134-89.133-40.961-20.541-24.111-16.416-57.492-21.348-88.723-6.616-41.898-37.474-87.896-11.901-121.82C35.954 14.268 89.12 22.357 132.364 23.983Z" clip-rule="evenodd"/>
    <path fill="#3F3D56" d="M192.161 70.394h-1.305V34.67a20.679 20.679 0 0 0-12.763-19.104 20.681 20.681 0 0 0-7.913-1.574H94.49a20.677 20.677 0 0 0-20.677 20.677v195.994A20.678 20.678 0 0 0 94.49 251.34h75.69a20.68 20.68 0 0 0 20.677-20.677V95.824h1.305l-.001-25.43Z"/>
    <path fill="#fff" d="M186.456 34.813v195.705a15.442 15.442 0 0 1-15.442 15.442H94.961a15.441 15.441 0 0 1-15.442-15.442V34.813a15.442 15.442 0 0 1 15.442-15.44h9.226a7.335 7.335 0 0 0 .707 6.86 7.336 7.336 0 0 0 6.087 3.246h43.361a7.345 7.345 0 0 0 6.087-3.246 7.336 7.336 0 0 0 .706-6.86h9.879a15.443 15.443 0 0 1 15.442 15.441v-.001Z"/>
    <path fill="#3F3D56" d="M90.134 38.888a.768.768 0 1 0 0-1.536.768.768 0 0 0 0 1.536Zm2.816 0a.768.768 0 1 0 0-1.536.768.768 0 0 0 0 1.536Zm2.817 0a.768.768 0 1 0 0-1.536.768.768 0 0 0 0 1.536Zm80.395-2.816h-7.937v1.024h7.937v-1.024Zm0 1.536h-7.937v1.024h7.937v-1.024Zm0 1.537h-7.937v1.024h7.937v-1.024Z"/>
    <path fill="#fff" d="M135.473 51.364H96.558c-1.733.003-3.394.799-4.62 2.215-1.226 1.415-1.915 3.335-1.918 5.338v94.048h74.099v-68.49c-.009-8.779-3.03-17.195-8.4-23.402-5.37-6.207-12.652-9.698-20.246-9.709Z"/>
    <path fill="#E4E4E4" d="M151.293 144.499h-48.447c-.418 0-.82.202-1.116.563-.296.361-.463.85-.463 1.361 0 .51.167 1 .463 1.36.296.361.698.564 1.116.564h48.447c.419 0 .82-.203 1.116-.564.297-.36.463-.85.463-1.36 0-.511-.166-1-.463-1.361-.296-.361-.697-.563-1.116-.563Zm0 26.939h-48.447c-.418 0-.82.203-1.116.564-.296.361-.463.85-.463 1.36 0 .511.167 1 .463 1.361.296.361.698.564 1.116.564h48.447c.419 0 .82-.203 1.116-.564.297-.361.463-.85.463-1.361 0-.51-.166-.999-.463-1.36-.296-.361-.697-.564-1.116-.564Zm0 30.788h-48.447c-.418 0-.82.203-1.116.564-.296.361-.463.85-.463 1.36 0 .511.167 1 .463 1.361.296.361.698.564 1.116.564h48.447c.419 0 .82-.203 1.116-.564.297-.361.463-.85.463-1.361 0-.51-.166-.999-.463-1.36-.296-.361-.697-.564-1.116-.564Zm-.002-64.655h-48.443c-.419 0-.821.203-1.118.564-.296.361-.463.85-.463 1.36 0 .511.167 1 .463 1.361.297.361.699.564 1.118.564h48.443c.42 0 .822-.203 1.118-.564.296-.361.463-.85.463-1.361 0-.51-.167-.999-.463-1.36-.296-.361-.698-.564-1.118-.564Zm0 26.94h-48.443c-.419 0-.821.202-1.118.563a2.16 2.16 0 0 0-.463 1.361c0 .51.167 1 .463 1.361.297.361.699.563 1.118.563h48.443c.42 0 .822-.202 1.118-.563a2.16 2.16 0 0 0 .463-1.361c0-.51-.167-1-.463-1.361-.296-.361-.698-.563-1.118-.563Zm0 30.018h-48.443c-.419 0-.821.203-1.118.564-.296.361-.463.85-.463 1.36 0 .511.167 1 .463 1.361.297.361.699.564 1.118.564h48.443c.42 0 .822-.203 1.118-.564.296-.361.463-.85.463-1.361 0-.51-.167-.999-.463-1.36-.296-.361-.698-.564-1.118-.564Zm-27.145-64.655h-21.279c-.424 0-.831.203-1.131.564-.3.361-.469.85-.469 1.36 0 .511.169 1 .469 1.361.3.361.707.564 1.131.564h21.279c.425 0 .832-.203 1.132-.564.3-.361.468-.85.468-1.361 0-.51-.168-.999-.468-1.36-.3-.361-.707-.564-1.132-.564Zm0 26.94h-21.279c-.424 0-.831.202-1.131.563a2.14 2.14 0 0 0-.469 1.361c0 .51.169 1 .469 1.361.3.36.707.563 1.131.563h21.279c.425 0 .832-.203 1.132-.563.3-.361.468-.851.468-1.361s-.168-1-.468-1.361c-.3-.361-.707-.563-1.132-.563Zm0 30.788h-21.279c-.424 0-.831.203-1.131.563a2.14 2.14 0 0 0-.469 1.361c0 .51.169 1 .469 1.361.3.361.707.563 1.131.563h21.279c.425 0 .832-.202 1.132-.563.3-.361.468-.851.468-1.361s-.168-1-.468-1.361c-.3-.36-.707-.563-1.132-.563Zm27.145-72.352h-48.443c-.419 0-.821.162-1.118.451a1.52 1.52 0 0 0-.463 1.088c0 .408.167.8.463 1.089.297.288.699.451 1.118.451h48.443c.42 0 .822-.163 1.118-.451.296-.289.463-.681.463-1.089 0-.408-.167-.8-.463-1.088a1.6 1.6 0 0 0-1.118-.451Zm.002-6.927h-48.447c-.418 0-.82.162-1.116.45a1.523 1.523 0 0 0-.463 1.089c0 .408.167.8.463 1.088.296.289.698.451 1.116.451h48.447c.419 0 .82-.162 1.116-.451.297-.288.463-.68.463-1.088 0-.408-.166-.8-.463-1.089a1.6 1.6 0 0 0-1.116-.45Zm-27.148-7.698h-21.276c-.425 0-.832.203-1.133.564-.3.361-.469.85-.469 1.361 0 .51.169 1 .469 1.36.301.361.708.564 1.133.564h21.276c.425 0 .832-.203 1.132-.564.301-.36.469-.85.469-1.36 0-.511-.168-1-.469-1.361-.3-.361-.707-.564-1.132-.564Z"/>
    <path fill="#130160" d="M151.291 85.231h-48.443c-.419 0-.821.203-1.118.564-.296.36-.463.85-.463 1.36 0 .511.167 1 .463 1.361.297.361.699.564 1.118.564h48.443c.42 0 .822-.203 1.118-.564.296-.36.463-.85.463-1.36 0-.51-.167-1-.463-1.361-.296-.36-.698-.564-1.118-.564Zm0-6.927h-48.443c-.419 0-.821.162-1.118.451-.296.289-.463.68-.463 1.089 0 .408.167.8.463 1.088.297.289.699.45 1.118.45h48.443c.42 0 .822-.161 1.118-.45a1.52 1.52 0 0 0 .463-1.088c0-.409-.167-.8-.463-1.089a1.601 1.601 0 0 0-1.118-.45Zm-27.146-7.697h-21.276c-.425 0-.832.203-1.133.564-.3.36-.469.85-.469 1.36 0 .51.169 1 .469 1.361.301.36.708.564 1.133.564h21.276c.425 0 .832-.203 1.132-.564.301-.36.469-.85.469-1.36 0-.511-.168-1-.469-1.361-.3-.361-.707-.564-1.132-.564Z"/>
    <path fill="#FFB6B6" d="m287.792 107.593-14.45-21.466-14.391 11.269 13.592 10.541 2.793 33.677a6.41 6.41 0 0 0-1.265 6.911 6.44 6.44 0 0 0 2.332 2.834 6.466 6.466 0 0 0 7.05.118 6.412 6.412 0 0 0 1.396-9.704l2.943-34.18Z"/>
    <path fill="#130160" d="M253.389 66.341c7.644-1.424 22.801 22.117 22.801 22.117-1.801.039 12.095 13.987 10.615 14.661-4.205 1.916-14.231 3.412-15.785 5.998-.89 1.479-9.752-8.587-9.752-8.587s-5.538-5.25-12.529-12.146a16.378 16.378 0 0 1-4.786-15.117s1.791-5.5 9.436-6.926Z"/>
    <path fill="#E6E1FF" d="m260.637 256.815.537-12.026a39.084 39.084 0 0 1 18.183-4.586c-8.733 7.113-7.642 20.826-13.562 30.393a23.415 23.415 0 0 1-7.363 7.351 23.504 23.504 0 0 1-9.833 3.445l-7.308 4.458a39.018 39.018 0 0 1 .648-16.767 39.095 39.095 0 0 1 7.634-14.956 37.887 37.887 0 0 1 6.975-6.458c1.751 4.598 4.089 9.146 4.089 9.146Z"/>
    <path fill="#FFB6B6" d="m241.807 279.662-6.618-.001-3.148-25.431h9.767l-.001 25.432Z"/>
    <path fill="#2F2E41" d="M243.494 286.052h-21.337v-.269c0-2.195.875-4.299 2.433-5.851a8.319 8.319 0 0 1 5.872-2.424h.001l3.897-2.946 7.272 2.947h1.863l-.001 8.543Z"/>
    <path fill="#FFB6B6" d="m211.063 279.662-6.617-.001-3.148-25.431h9.767l-.002 25.432Z"/>
    <path fill="#2F2E41" d="M212.751 286.052h-21.337v-.269a8.26 8.26 0 0 1 2.432-5.851 8.321 8.321 0 0 1 5.873-2.424l3.898-2.946 7.272 2.947h1.862v8.543Z"/>
    <path fill="#69687F" d="m208.199 140.627 43.043 1.072c8.174 4.424 8.299 13.999 5.62 25.367 0 0 .904 6.757-.904 8.559-1.809 1.802-2.713 1.802-1.809 4.955.905 3.153-3.873 8.303-3.292 8.882.58.578 1.936 3.731 1.936 3.731l-4.521 25.676s-3.165 44.595-4.069 45.496c-.904.901-1.808 0-.904 2.252.904 2.253 1.808 1.352.904 2.253a32.98 32.98 0 0 0-2.261 2.703h-10.93s-.824-4.505-.824-4.956c0-.45-.905-3.153-.905-3.603 0-.451.8-1.247.8-1.247.276-.916.462-1.856.557-2.807 0-.901 2.712-35.586 2.712-35.586l-5.425-45.046-13.111 44.145s0 38.739-.904 39.64c-.905.901-.905.45-.452 2.252.452 1.802 2.26 1.352.904 2.703-1.357 1.351-1.809-.901-1.357 1.351l.453 2.253-13.564.193s-1.808-3.797-.904-5.148c.904-1.352.85-.983-.253-3.194-1.103-2.212-1.555-2.662-1.103-3.113.452-.45.452-2.846.452-2.846l2.26-43.101s.452-45.496.452-46.847a4.471 4.471 0 0 0-.375-2.027v-1.834l1.732-6.5 6.042-15.628Z"/>
    <path fill="#FFB6B6" d="M234.055 51.454c7.386 0 13.374-5.966 13.374-13.325 0-7.36-5.988-13.325-13.374-13.325s-13.373 5.966-13.373 13.325c0 7.359 5.987 13.325 13.373 13.325Z"/>
    <path fill="#130160" d="M227.369 60.26c-2.882 1.707-4.605 4.843-5.594 8.034a75.86 75.86 0 0 0-3.284 18.188l-1.045 18.481-12.942 39.352c11.217 9.456 53.378 2.149 53.378 2.149s1.294-.43 0-1.72c-1.294-1.289-2.554-.147-1.26-1.436 1.294-1.29.402.147-.029-1.143-.432-1.289 0-.429.431-.859.432-.43-3.34-4.299-3.34-4.299l3.452-22.588 4.314-45.562c-5.177-6.447-15.589-10.248-15.589-10.248l-2.69-4.825-13.451 1.072-2.351 5.405Z"/>
    <path fill="#2F2E41" d="M225.534 30.309a6.348 6.348 0 0 1 1.534.2c.987.237 1.99.405 3.001.502a13.932 13.932 0 0 1 8.263 3.737 13.838 13.838 0 0 1 4.192 8.018c.777-.675 2.545-1.917 3.995-.763.022.018.035.028.086.004.962-.455 2.671-6.055 2.723-10.986.027-2.617-.387-5.959-2.511-7.017l-.112-.056-.029-.12c-.142-.59-1.728-1.594-4.484-2.376-5.008-1.422-12.474-4.19-16.677-.116-.319 1.374-1.354 4.314-2.399 4.647-1.158.369-2.158.687-2.316 2.102a43.269 43.269 0 0 0 .029 6.046 6.17 6.17 0 0 1 2.202-3.081 4.374 4.374 0 0 1 2.503-.741Z"/>
    <path fill="#FFB6B6" d="m200.642 103.934 21.846-13.94-11.003-14.573-10.865 13.316-33.853 2.069a6.475 6.475 0 0 0-6.908-1.406 6.454 6.454 0 0 0-2.893 2.263 6.412 6.412 0 0 0-.267 7.02 6.439 6.439 0 0 0 2.712 2.475 6.47 6.47 0 0 0 6.995-.879l34.236 3.655Z"/>
    <path fill="#130160" d="M242.764 70.538c1.268 7.645-22.676 22.244-22.676 22.244 0-1.794-14.291 11.753-14.936 10.265-1.833-4.23-3.122-14.249-5.684-15.852-1.465-.917 8.823-9.532 8.823-9.532s5.386-5.406 12.453-12.224a16.498 16.498 0 0 1 7.061-4.18c2.67-.778 5.494-.87 8.21-.267 0 0 5.481 1.9 6.749 9.546Zm48.719 215.621a.62.62 0 0 1-.187.451.641.641 0 0 1-.453.187H140.037a.642.642 0 0 1-.64-.638.635.635 0 0 1 .64-.638h150.806a.636.636 0 0 1 .64.638Z"/>
    <circle cx="68.206" cy="25.206" r="25.206" fill="#FCA34D"/>
    <path fill="#fff" d="m76.008 31.829 3.262 3.26a.835.835 0 0 1-1.18 1.181l-3.263-3.262a10.857 10.857 0 1 1 1.181-1.18Zm-8.244 2.121a9.187 9.187 0 1 0 0-18.373 9.187 9.187 0 0 0 0 18.373Z"/>
</svg>
